<svg width="18" height="18" viewBox="0 0 18 18" fill="none" xmlns="http://www.w3.org/2000/svg">
<g id="download - 2021-11-04T150628.420 1">
<g id="Group">
<path id="Vector" d="M15.2218 2.92487H2.76857C1.74869 2.92487 0.916687 3.75687 0.916687 4.77675V6.01134H17.1006V4.77675C17.0737 3.75687 16.2417 2.92487 15.2218 2.92487ZM5.26459 5.0183C4.9962 5.25985 4.59362 5.23301 4.35207 4.96462C4.11052 4.69623 4.1642 4.29365 4.43259 4.0521C4.70098 3.81055 5.10356 3.83739 5.34511 4.10578C5.58666 4.37417 5.55982 4.77675 5.26459 5.0183ZM9.10256 5.1525C8.75366 5.1525 8.45843 4.85727 8.45843 4.50836C8.45843 4.15946 8.75366 3.86423 9.10256 3.86423C9.45147 3.86423 9.7467 4.15946 9.7467 4.50836C9.7467 4.88411 9.45147 5.1525 9.10256 5.1525ZM13.1284 5.1525C12.7795 5.1525 12.4843 4.85727 12.4843 4.50836C12.4843 4.15946 12.7795 3.86423 13.1284 3.86423C13.4773 3.86423 13.7725 4.15946 13.7725 4.50836C13.7725 4.88411 13.4773 5.1525 13.1284 5.1525Z" fill="white"/>
<path id="Vector_2" d="M0.916687 14.4919C0.916687 15.5118 1.74869 16.3438 2.76858 16.3438H15.2219C16.2417 16.3438 17.0737 15.5118 17.0737 14.4919V6.38654H0.916687V14.4919Z" fill="white"/>
</g>
<g id="Group_2">
<path id="Vector_3" d="M13.1289 4.80349C12.9679 4.80349 12.8605 4.69614 12.8605 4.5351V1.74385C12.8605 1.58282 12.9679 1.47546 13.1289 1.47546C13.29 1.47546 13.3973 1.58282 13.3973 1.74385V4.5351C13.3973 4.6693 13.2631 4.80349 13.1289 4.80349Z" fill="white"/>
</g>
<g id="Group_3">
<path id="Vector_4" d="M9.10311 4.80349C8.94207 4.80349 8.83472 4.69614 8.83472 4.5351V1.74385C8.83472 1.58282 8.94207 1.47546 9.10311 1.47546C9.26414 1.47546 9.3715 1.58282 9.3715 1.74385V4.5351C9.3715 4.6693 9.2373 4.80349 9.10311 4.80349Z" fill="white"/>
</g>
<g id="Group_4">
<path id="Vector_5" d="M4.86232 4.80349C4.70129 4.80349 4.59393 4.69614 4.59393 4.5351V1.74385C4.59393 1.58282 4.70129 1.47546 4.86232 1.47546C5.02336 1.47546 5.13071 1.58282 5.13071 1.74385V4.5351C5.13071 4.6693 4.99652 4.80349 4.86232 4.80349Z" fill="white"/>
</g>
<path id="Vector_6" d="M14.7761 15.3H3.22387C2.44476 15.3 1.79999 14.6729 1.79999 13.9152V7.20001H16.2V13.9152C16.2 14.6729 15.5552 15.3 14.7761 15.3Z" fill="white"/>
</g>
</svg>
