<svg width="95" height="47" viewBox="0 0 95 47" fill="none" xmlns="http://www.w3.org/2000/svg">
<path d="M24.864 21.018C24.864 17.108 22.552 14.592 18.982 14.592C17.214 14.592 15.786 15.17 14.698 16.292V15H9.632V32H15.174V21.732C15.174 20.474 16.024 19.658 17.214 19.658C18.438 19.658 19.288 20.508 19.288 21.732V32H24.864V21.018ZM38.1253 6.5V16.02C37.2073 15.068 35.9833 14.592 34.3853 14.592C30.1353 14.592 27.2793 18.128 27.2793 23.5C27.2793 28.872 30.1353 32.408 34.3853 32.408C36.2893 32.408 37.7173 31.728 38.6353 30.334V32H43.7013V6.5H38.1253ZM38.2273 23.534C38.2273 26.118 37.1393 27.342 35.6093 27.342C34.0793 27.342 32.9913 26.05 32.9913 23.5C32.9913 20.95 34.0793 19.658 35.6093 19.658C37.1393 19.658 38.2273 20.916 38.2273 23.534ZM46.2383 23.466C46.2383 28.702 49.6723 32.408 54.5343 32.408C59.3283 32.408 62.8303 28.668 62.8303 23.466C62.8303 18.264 59.3963 14.592 54.5343 14.592C49.6723 14.592 46.2383 18.264 46.2383 23.466ZM57.1523 23.5C57.1523 25.948 56.1663 27.308 54.5683 27.308C52.9023 27.308 51.9503 25.982 51.9503 23.5C51.9503 21.018 52.9023 19.692 54.5683 19.692C56.1663 19.692 57.1523 21.052 57.1523 23.5ZM64.6993 23.466C64.6993 28.702 68.1333 32.408 72.9953 32.408C77.7893 32.408 81.2913 28.668 81.2913 23.466C81.2913 18.264 77.8573 14.592 72.9953 14.592C68.1333 14.592 64.6993 18.264 64.6993 23.466ZM75.6133 23.5C75.6133 25.948 74.6273 27.308 73.0293 27.308C71.3633 27.308 70.4113 25.982 70.4113 23.5C70.4113 21.018 71.3633 19.692 73.0293 19.692C74.6273 19.692 75.6133 21.052 75.6133 23.5ZM94.2442 15C93.8702 14.83 93.3942 14.762 92.8162 14.762C91.1842 14.762 89.8922 15.442 88.9402 16.802V15H83.8742V32H89.4162V23.738C89.4162 21.188 90.6062 20.134 93.0202 20.134H94.2442V15Z" fill="#FF158B"/>
<path d="M1.632 15H7.174V32H1.632V15ZM0.986 37.984C0.986 36.182 2.516 34.686 4.386 34.686C5.304 34.686 6.12 34.992 6.8 35.638C7.48 36.284 7.82 37.066 7.82 37.984C7.82 39.888 6.29 41.316 4.386 41.316C2.482 41.316 0.986 39.888 0.986 37.984Z" fill="#FF158B"/>
</svg>
