<svg width="40" height="40" viewBox="0 0 40 40" fill="none" xmlns="http://www.w3.org/2000/svg">
<circle cx="20" cy="20" r="20" fill="#202020"/>
<g clip-path="url(#clip0_9269_6937)">
<path d="M27.003 21.7547H27.0012V17.55C27.0012 17.5266 27.003 17.5032 27.003 17.4798C27.003 13.9356 24.0708 11.0592 20.4583 11.0592C16.8457 11.0592 13.9135 13.9356 13.9135 17.4798C13.9135 17.5032 13.9135 17.5266 13.9153 17.55V21.8393L11.0083 26.0117H29.991L27.003 21.7547Z" fill="#525252"/>
<path d="M17.5224 26.9625C17.5224 28.6059 18.8562 29.9397 20.4996 29.9397C22.1412 29.9397 23.4749 28.6059 23.4749 26.9625" fill="#525252"/>
<circle cx="26.5" cy="14.5" r="3" fill="#B72B2B" stroke="#272727"/>
</g>
<defs>
<clipPath id="clip0_9269_6937">
<rect width="25" height="25" fill="white" transform="translate(8 8)"/>
</clipPath>
</defs>
</svg>
