<svg width="14" height="14" viewBox="0 0 14 14" fill="none" xmlns="http://www.w3.org/2000/svg">
<path id="Vector" opacity="0.7" d="M13.7854 12.51L10.6117 9.38434C11.3758 8.38255 11.7883 7.16316 11.7869 5.91022C11.7869 2.70984 9.14306 0.106079 5.89344 0.106079C2.64382 0.106079 0 2.70984 0 5.91022C0 9.11061 2.64382 11.7144 5.89344 11.7144C7.16566 11.7157 8.4038 11.3095 9.421 10.557L12.5947 13.6826C12.7554 13.8241 12.9649 13.8996 13.1803 13.8936C13.3957 13.8877 13.6006 13.8008 13.753 13.6507C13.9054 13.5006 13.9936 13.2988 13.9997 13.0867C14.0057 12.8746 13.929 12.6682 13.7854 12.51ZM1.68384 5.91022C1.68384 5.09026 1.93073 4.28871 2.39329 3.60693C2.85584 2.92516 3.51329 2.39378 4.2825 2.07999C5.0517 1.7662 5.89811 1.6841 6.71469 1.84407C7.53127 2.00403 8.28135 2.39889 8.87008 2.97869C9.4588 3.55849 9.85972 4.29721 10.0222 5.10142C10.1846 5.90563 10.1012 6.73921 9.7826 7.49676C9.46399 8.25431 8.92443 8.9018 8.23217 9.35735C7.5399 9.81289 6.72602 10.056 5.89344 10.056C4.7774 10.0547 3.70745 9.61751 2.91828 8.8403C2.12912 8.0631 1.68518 7.00936 1.68384 5.91022Z" fill="white"/>
</svg>
