<svg width="40" height="40" viewBox="0 0 40 40" fill="none" xmlns="http://www.w3.org/2000/svg">
<circle cx="20" cy="20" r="20" fill="#202020"/>
<path d="M12.4595 22.3172H13.3044C13.4836 22.3172 13.6373 22.4196 13.7141 22.6245C13.7909 22.8037 13.7653 22.9829 13.6373 23.111L13.0484 23.6999C12.7667 23.9815 12.6131 24.34 12.6131 24.724C12.6131 25.1081 12.7667 25.4666 13.0484 25.7482L14.2518 26.9516C14.5334 27.2333 14.8919 27.3869 15.276 27.3869C15.66 27.3869 16.0185 27.2333 16.3001 26.9516L16.889 26.3627C17.0171 26.2347 17.1963 26.2091 17.4011 26.2859C17.5804 26.3627 17.6828 26.5164 17.6828 26.6956V27.5405C17.6828 28.3343 18.3229 29 19.1422 29H20.8578C21.6515 29 22.3172 28.3599 22.3172 27.5405V26.6956C22.3172 26.5164 22.4196 26.3627 22.5989 26.2859H22.6245C22.8037 26.2091 22.9829 26.2347 23.111 26.3627L23.6999 26.9516C23.9815 27.2333 24.34 27.3869 24.724 27.3869C25.1081 27.3869 25.4666 27.2333 25.7482 26.9516L26.9516 25.7482C27.2333 25.4666 27.3869 25.1081 27.3869 24.724C27.3869 24.34 27.2333 23.9815 26.9516 23.6999L26.3627 23.111C26.2347 22.9829 26.2091 22.8037 26.2859 22.5989C26.3627 22.4196 26.5164 22.3172 26.6956 22.3172H27.5405C28.3343 22.3172 29 21.6771 29 20.8578V19.1422C29 18.3485 28.3599 17.6828 27.5405 17.6828H26.6956C26.5164 17.6828 26.3627 17.5804 26.2859 17.3755C26.2091 17.1963 26.2347 17.0171 26.3627 16.889L26.9516 16.3001C27.2333 16.0185 27.3869 15.66 27.3869 15.276C27.3869 14.8919 27.2333 14.5334 26.9516 14.2518L25.7482 13.0484C25.4666 12.7667 25.1081 12.6131 24.724 12.6131C24.34 12.6131 23.9815 12.7667 23.6999 13.0484L23.111 13.6373C22.9829 13.7653 22.8037 13.7909 22.5989 13.7141C22.4196 13.6373 22.3172 13.4836 22.3172 13.3044V12.4595C22.3172 11.6657 21.6771 11 20.8578 11H19.1422C18.3485 11 17.6828 11.6401 17.6828 12.4595V13.3044C17.6828 13.4836 17.5804 13.6373 17.4011 13.7141H17.3755C17.1963 13.7909 17.0171 13.7653 16.889 13.6373L16.3001 13.0484C16.0185 12.7667 15.66 12.6131 15.276 12.6131C14.8919 12.6131 14.5334 12.7667 14.2518 13.0484L13.0484 14.2518C12.7667 14.5334 12.6131 14.8919 12.6131 15.276C12.6131 15.66 12.7667 16.0185 13.0484 16.3001L13.6373 16.889C13.7653 17.0171 13.7909 17.1963 13.7141 17.4011C13.6373 17.5804 13.4836 17.6828 13.3044 17.6828H12.4595C11.6657 17.6828 11 18.3229 11 19.1422V20.8578C11 21.6771 11.6401 22.3172 12.4595 22.3172ZM19.9616 17.1963C21.5235 17.1963 22.7781 18.4509 22.7781 20.0128C22.7781 21.5747 21.5235 22.8293 19.9616 22.8293C18.3997 22.8293 17.1451 21.5747 17.1451 20.0128C17.1451 18.4509 18.3997 17.1963 19.9616 17.1963Z" fill="#525252"/>
<circle cx="27.5" cy="13.5" r="3" fill="#B72B2B" stroke="#272727"/>
</svg>
