<svg width="8" height="8" viewBox="0 0 8 8" fill="none" xmlns="http://www.w3.org/2000/svg">
<g id="refresh-cw" clip-path="url(#clip0_9269_7267)">
<path id="Vector" d="M7.66663 1.33331V3.33331H5.66663" stroke="white" stroke-width="0.7" stroke-linecap="round" stroke-linejoin="round"/>
<path id="Vector_2" d="M0.333374 6.66669V4.66669H2.33337" stroke="white" stroke-width="0.7" stroke-linecap="round" stroke-linejoin="round"/>
<path id="Vector_3" d="M0.836667 2.7992C1.00572 2.32146 1.29304 1.89433 1.67182 1.55767C2.0506 1.22101 2.50849 0.985788 3.00276 0.873952C3.49704 0.762116 4.01158 0.777313 4.4984 0.918124C4.98521 1.05893 5.42842 1.32077 5.78667 1.6792L7.33333 3.13253M0 4.46587L1.54667 5.9192C1.90492 6.27763 2.34812 6.53946 2.83494 6.68027C3.32175 6.82109 3.8363 6.83628 4.33057 6.72445C4.82484 6.61261 5.28273 6.37739 5.66151 6.04073C6.04029 5.70406 6.32761 5.27694 6.49667 4.7992" stroke="white" stroke-width="0.7" stroke-linecap="round" stroke-linejoin="round"/>
</g>
<defs>
<clipPath id="clip0_9269_7267">
<rect width="8" height="8" fill="white"/>
</clipPath>
</defs>
</svg>
