<svg width="63" height="11" viewBox="0 0 63 11" fill="none" xmlns="http://www.w3.org/2000/svg">
<g id="Group 57">
<g id="Group 52">
<g id="Group">
<g id="Group_2">
<path id="Vector" d="M8.64641 6.65259L10.7749 4.6473C11.2144 4.24394 10.9715 3.50636 10.3816 3.43722L7.37397 3.04538L6.11309 0.406243C5.8586 -0.135414 5.08356 -0.135414 4.82907 0.406243L3.52192 3.13758L0.618431 3.51789C0.028478 3.59856 -0.214444 4.32461 0.225129 4.72797L2.43456 6.80241L1.90245 9.67204C1.79834 10.2598 2.41142 10.7093 2.94354 10.4211L5.61568 8.96903L8.18371 10.3635C8.70425 10.6516 9.32891 10.2022 9.2248 9.61441L8.64641 6.65259Z" fill="#FF891D"/>
</g>
</g>
</g>
<g id="Group 53">
<g id="Group_3">
<g id="Group_4">
<path id="Vector_2" d="M21.6464 6.65259L23.7749 4.6473C24.2144 4.24394 23.9715 3.50636 23.3816 3.43722L20.374 3.04538L19.1131 0.406243C18.8586 -0.135414 18.0836 -0.135414 17.8291 0.406243L16.5219 3.13758L13.6184 3.51789C13.0285 3.59856 12.7856 4.32461 13.2251 4.72797L15.4346 6.80241L14.9024 9.67204C14.7983 10.2598 15.4114 10.7093 15.9435 10.4211L18.6157 8.96903L21.1837 10.3635C21.7043 10.6516 22.3289 10.2022 22.2248 9.61441L21.6464 6.65259Z" fill="#FF891D"/>
</g>
</g>
</g>
<g id="Group 54">
<g id="Group_5">
<g id="Group_6">
<path id="Vector_3" d="M34.6464 6.65259L36.7749 4.6473C37.2144 4.24394 36.9715 3.50636 36.3816 3.43722L33.374 3.04538L32.1131 0.406243C31.8586 -0.135414 31.0836 -0.135414 30.8291 0.406243L29.5219 3.13758L26.6184 3.51789C26.0285 3.59856 25.7856 4.32461 26.2251 4.72797L28.4346 6.80241L27.9024 9.67204C27.7983 10.2598 28.4114 10.7093 28.9435 10.4211L31.6157 8.96903L34.1837 10.3635C34.7043 10.6516 35.3289 10.2022 35.2248 9.61441L34.6464 6.65259Z" fill="#FF891D"/>
</g>
</g>
</g>
<g id="Group 55">
<g id="Group_7">
<g id="Group_8">
<path id="Vector_4" d="M47.6464 6.65259L49.7749 4.6473C50.2144 4.24394 49.9715 3.50636 49.3816 3.43722L46.374 3.04538L45.1131 0.406243C44.8586 -0.135414 44.0836 -0.135414 43.8291 0.406243L42.5219 3.13758L39.6184 3.51789C39.0285 3.59856 38.7856 4.32461 39.2251 4.72797L41.4346 6.80241L40.9024 9.67204C40.7983 10.2598 41.4114 10.7093 41.9435 10.4211L44.6157 8.96903L47.1837 10.3635C47.7043 10.6516 48.3289 10.2022 48.2248 9.61441L47.6464 6.65259Z" fill="#FF891D"/>
</g>
</g>
</g>
<g id="Group 56">
<g id="Group_9">
<g id="Group_10">
<path id="Vector_5" d="M60.6464 6.65259L62.7749 4.6473C63.2144 4.24394 62.9715 3.50636 62.3816 3.43722L59.374 3.04538L58.1131 0.406243C57.8586 -0.135414 57.0836 -0.135414 56.8291 0.406243L55.5219 3.13758L52.6184 3.51789C52.0285 3.59856 51.7856 4.32461 52.2251 4.72797L54.4346 6.80241L53.9024 9.67204C53.7983 10.2598 54.4114 10.7093 54.9435 10.4211L57.6157 8.96903L60.1837 10.3635C60.7043 10.6516 61.3289 10.2022 61.2248 9.61441L60.6464 6.65259Z" fill="#FF891D"/>
</g>
</g>
</g>
</g>
</svg>
